<?xml version="1.0" standalone="no"?><svg xmlns="http://www.w3.org/2000/svg" viewBox="0 0 1440 320"><path fill="#ffa62b" fill-opacity="1" d="M0,64L18.5,74.7C36.9,85,74,107,111,117.3C147.7,128,185,128,222,144C258.5,160,295,192,332,197.3C369.2,203,406,181,443,160C480,139,517,117,554,138.7C590.8,160,628,224,665,261.3C701.5,299,738,309,775,277.3C812.3,245,849,171,886,133.3C923.1,96,960,96,997,101.3C1033.8,107,1071,117,1108,128C1144.6,139,1182,149,1218,181.3C1255.4,213,1292,267,1329,261.3C1366.2,256,1403,192,1422,160L1440,128L1440,320L1421.5,320C1403.1,320,1366,320,1329,320C1292.3,320,1255,320,1218,320C1181.5,320,1145,320,1108,320C1070.8,320,1034,320,997,320C960,320,923,320,886,320C849.2,320,812,320,775,320C738.5,320,702,320,665,320C627.7,320,591,320,554,320C516.9,320,480,320,443,320C406.2,320,369,320,332,320C295.4,320,258,320,222,320C184.6,320,148,320,111,320C73.8,320,37,320,18,320L0,320Z"></path></svg>